<svg xmlns="http://www.w3.org/2000/svg" x="0px" y="0px" width="100" height="100" viewBox="0,0,256,256">
<g fill="#5c7cfa" fill-rule="nonzero" stroke="none" stroke-width="1" stroke-linecap="butt" stroke-linejoin="miter" stroke-miterlimit="10" stroke-dasharray="" stroke-dashoffset="0" font-family="none" font-weight="none" font-size="none" text-anchor="none" style="mix-blend-mode: normal"><g transform="scale(5.12,5.12)"><path d="M9.90625,0c-0.09375,0.00781 -0.19141,0.02734 -0.28125,0.0625c-0.10937,0.04297 -2.625,1.06641 -2.625,5.40625c0,3.16016 1.66016,5.71875 3.8125,7.59375c0.39453,-0.1875 0.80859,-0.28125 1.25,-0.28125c0.44531,0 0.90625,0.08984 1.3125,0.28125c0.38281,0.18359 0.79688,0.28125 1.28125,0.28125c0.66406,0 1.43359,-0.17187 2.25,-0.34375c1.01172,-0.20703 2.13672,-0.4375 3.375,-0.4375c2.27734,0 4.26563,0.80859 6.03125,2.46875c4.01172,0.19141 7.25781,1.23047 9.3125,2.09375c0.53516,0.22656 0.99219,0.50781 1.40625,0.84375c2.64844,-1.54687 4.94141,-4.10547 5.9375,-7.6875c0.13672,-0.49609 -0.14453,-1.03516 -0.625,-1.21875c-0.48047,-0.18359 -1.01953,0.03516 -1.25,0.5c-0.46484,0.94141 -3.54687,4.4375 -7.65625,4.4375c-1.52734,0 -1.67187,-0.4375 -1.6875,-2.65625c-0.01953,-2.52734 -0.04687,-6.34375 -6.75,-6.34375c-0.45312,0 -0.85156,0.3125 -0.96875,0.75c-0.11719,0.4375 0.07422,0.89844 0.46875,1.125c2.75781,1.58203 2.59375,2.46094 2.3125,3.90625c-0.11328,0.58594 -0.24609,1.25781 -0.1875,2c-1.125,-0.33203 -2.49609,-1.04687 -3.5,-2.28125c-1.29687,-1.59766 -1.69531,-3.70703 -1.15625,-6.28125c0.08594,-0.41406 -0.07422,-0.83984 -0.4375,-1.0625c-0.35937,-0.22266 -0.82812,-0.20703 -1.15625,0.0625c-2.73047,2.23047 -2.71094,5.30469 -2.03125,7.5c-2.01562,-0.53906 -5.00781,-1.86719 -6.65625,-4.15625c-1.125,-1.56641 -1.38672,-3.34375 -0.75,-5.25c0.12109,-0.36719 0.03125,-0.76172 -0.25,-1.03125c-0.21094,-0.19922 -0.5,-0.30469 -0.78125,-0.28125zM20.21875,14.5625c-1.00781,0.01172 -2.00781,0.21484 -2.9375,0.40625c-1.64844,0.33984 -3.19922,0.66406 -4.78125,-0.09375c-0.32031,-0.15234 -0.70312,-0.14062 -1,0.0625c-0.29297,0.19922 -0.43359,0.55078 -0.40625,0.90625c0.20703,2.78906 1.5625,6.00781 6.53125,6.90625c-0.81641,1.0625 -1.08203,2.48828 -1.375,3.9375c-0.53906,2.64453 -1.16797,5.64453 -4.8125,8.625c-0.24219,0.19922 -0.39062,0.49609 -0.375,0.8125c0.01563,0.3125 0.17578,0.60156 0.4375,0.78125c0.54297,0.36719 1.63281,0.44141 2.625,0.40625c-1.69922,1.88281 -5.48437,4.08203 -8,5.25c-0.35156,0.16406 -0.58984,0.51953 -0.59375,0.90625c0,0.38672 0.21484,0.73828 0.5625,0.90625c3.53516,1.68359 8.25781,1.95313 10.78125,1.96875c-0.40625,0.66406 -0.94141,1.41016 -1.5,1.90625c-0.3125,0.27734 -0.39844,0.70313 -0.25,1.09375c0.14844,0.38672 0.52344,0.65625 0.9375,0.65625c9.75391,0 16.51953,-1.38672 18.28125,-2.0625c0.38672,-0.14844 0.65625,-0.52344 0.65625,-0.9375c0,-2.89062 -1.03516,-7.05078 -1.9375,-10.03125c-6.63672,-0.4375 -8.87109,-5.34375 -8.96875,-5.5625c-0.22266,-0.50781 -0.00781,-1.08984 0.5,-1.3125c0.50391,-0.22266 1.08984,-0.00391 1.3125,0.5c0.08203,0.17969 1.86719,3.94922 7.125,4.375c1.58594,-0.13281 2.4375,-0.57422 3.28125,-1 head-0.49609 1.91406,-0.96875 4.40625,-0.96875c2.99219,0 5.28125,-3.50391 5.28125,-4.9375c0,-0.94141 -0.51953,-1.28516 -2.03125,-2.25l-0.75,-0.46875c-1.52734,-0.98437 -5.19922,-3.375 -6.40625,-4.15625c-0.25391,-1.24219 -1.17969,-1.88672 -1.96875,-2.21875c-2.05859,-0.86328 -5.3125,-1.89844 -9.375,-1.96875c-1.80469,-1.95703 -3.57422,-2.45703 -5.25,-2.4375zM28.5,22.59375l4.5,1.1875c-0.33203,1.23828 -1.60156,1.99219 -2.84375,1.65625c-1.23828,-0.33594 -1.99219,-1.60547 -1.65625,-2.84375z"></path></g></g>
</svg>